# xmcd
#
# Track frame offsets: 
#        183
#        73695
#        113685
#        144545
#        197175
#        219495
#
# Disc length: 3036 seconds
#
# Revision: 2
# Processed by: cddbd v1.5.2PL0 Copyright (c) Steve Scherf et al.
# Submitted via: ExactAudioCopy v0.95b4
#
DISCID=5a0bda06
DTITLE=Roland Kirk - Live In Paris, 1970 Vol. 2
DYEAR=1970
DGENRE=Jazz
TTITLE0=Sweet Fire
TTITLE1=Make Me A Pallet On The Floor
TTITLE2=Charlie Parker Medley
TTITLE3=Volunteer Slavery
TTITLE4=You Did It, You Did It
TTITLE5=Satin Doll
EXTD=Recorded  February 22, 1970 at the Maison de la Radio, Paris YEAR
EXTD=: 1970
EXTT0=
EXTT1=
EXTT2=
EXTT3=
EXTT4=
EXTT5=
PLAYORDER=
